<?xml version="1.0" standalone="no"?>
<!DOCTYPE svg PUBLIC "-//W3C//DTD SVG 20010904//EN"
 "http://www.w3.org/TR/2001/REC-SVG-20010904/DTD/svg10.dtd">
<svg version="1.0" xmlns="http://www.w3.org/2000/svg"
 width="4500.000000pt" height="1000.000000pt" viewBox="0 0 4500.000000 1000.000000"
 preserveAspectRatio="xMidYMid meet">

<g transform="translate(0.000000,1000.000000) scale(0.100000,-0.100000)"
fill="#000000" stroke="none">
<path d="M9978 9333 l-13 -28 -129 -3 c-120 -2 -131 -4 -158 -27 -27 -23 -38
-25 -121 -25 -80 0 -93 -3 -115 -22 -19 -19 -35 -23 -91 -24 -54 0 -74 -5 -96
-22 -22 -17 -41 -22 -90 -22 -53 0 -64 -3 -83 -25 -18 -20 -31 -25 -70 -25
-36 0 -54 -5 -67 -20 -13 -15 -31 -20 -65 -20 -37 0 -51 -5 -68 -25 -15 -17
-32 -25 -55 -25 -21 0 -41 -8 -52 -20 -10 -11 -30 -20 -45 -20 -14 0 -41 -11
-60 -25 -19 -14 -41 -25 -51 -25 -9 0 -27 -8 -40 -19 -13 -10 -34 -21 -45 -25
-12 -4 -29 -15 -39 -26 -10 -11 -25 -20 -33 -20 -9 0 -26 -10 -38 -21 -25 -24
-51 -40 -101 -64 -18 -8 -33 -19 -33 -23 0 -4 -34 -34 -76 -67 -95 -75 -123
-104 -203 -204 -35 -45 -68 -81 -73 -81 -4 0 -8 -13 -8 -29 0 -20 -9 -36 -25
-49 -17 -13 -25 -30 -25 -50 0 -21 -8 -35 -25 -46 -19 -12 -24 -24 -23 -51 1
-23 -7 -47 -20 -65 l-22 -29 0 -1356 0 -1355 -22 -22 c-19 -19 -24 -37 -27
-96 -2 -58 -7 -76 -22 -85 -12 -8 -19 -23 -19 -44 0 -24 -7 -37 -25 -49 -13
-9 -27 -26 -31 -37 -16 -52 -80 -119 -164 -172 -30 -19 -60 -42 -66 -50 -7 -9
-26 -18 -44 -20 -18 -2 -42 -13 -54 -24 -18 -17 -35 -21 -85 -21 -53 0 -68 -4
-93 -26 l-31 -25 -281 5 c-155 2 -312 9 -351 15 -161 26 -310 30 -1100 28
l-829 -2 1 -117 c1 -103 3 -120 22 -144 18 -23 21 -40 21 -119 0 -85 2 -94 22
-107 20 -14 23 -24 23 -88 0 -64 3 -74 22 -87 19 -13 23 -24 23 -71 0 -43 5
-61 21 -78 13 -14 23 -41 27 -71 3 -31 12 -53 24 -61 13 -9 18 -26 18 -58 0
-35 5 -49 25 -66 17 -15 25 -32 25 -54 0 -21 7 -36 21 -45 13 -9 22 -27 23
-47 1 -20 10 -38 24 -48 14 -9 22 -26 22 -43 0 -20 8 -34 25 -45 16 -11 25
-26 25 -42 0 -16 16 -45 38 -73 22 -25 42 -57 45 -71 4 -14 27 -47 52 -73 25
-26 45 -57 45 -68 0 -24 461 -489 485 -489 18 0 60 -29 99 -67 13 -13 30 -23
39 -23 9 0 28 -11 43 -25 15 -14 33 -25 40 -25 7 0 18 -9 24 -20 7 -13 21 -20
40 -20 20 0 35 -8 46 -25 12 -18 25 -25 49 -25 24 0 37 -7 49 -25 13 -20 22
-24 41 -19 18 4 30 -1 48 -20 18 -19 34 -26 62 -26 25 0 47 -8 67 -25 20 -17
42 -25 67 -25 25 0 44 -7 56 -20 14 -16 31 -20 80 -20 53 0 64 -3 83 -25 20
-23 29 -25 100 -25 66 0 82 -3 97 -20 16 -18 31 -20 138 -20 107 0 124 -2 156
-22 35 -23 42 -23 356 -23 317 0 321 0 349 22 27 22 37 23 201 23 159 0 173 1
190 20 15 17 31 20 101 20 75 0 86 3 110 25 21 20 37 25 77 25 39 0 56 5 75
22 18 18 34 23 68 21 37 -1 47 3 60 23 13 18 25 24 54 24 24 0 43 7 55 20 10
11 33 22 51 26 18 3 43 15 55 25 12 10 30 19 39 19 9 0 25 9 34 19 10 11 31
23 47 26 16 4 34 15 39 26 7 12 21 19 39 19 20 0 34 8 45 25 9 14 22 25 29 25
7 0 20 9 30 20 9 11 25 20 34 20 10 0 48 28 84 63 36 34 90 81 120 104 74 57
142 125 219 219 36 43 89 103 117 134 29 30 53 59 53 64 0 13 52 89 67 99 6 4
19 21 27 37 9 17 23 43 31 58 8 16 24 37 35 47 11 10 20 28 20 40 0 12 11 32
25 45 14 13 25 31 25 41 0 10 5 21 11 25 6 3 19 25 29 49 10 24 23 46 28 49 6
3 14 21 18 39 3 17 15 43 25 56 11 13 19 34 19 47 0 12 12 36 26 53 17 21 24
39 21 52 -4 14 2 29 19 44 18 16 24 33 24 63 0 29 7 49 25 70 18 21 25 42 25
71 0 28 6 46 22 60 17 16 21 31 19 71 -1 43 3 54 24 74 22 21 25 31 25 92 0
55 4 72 21 90 18 19 22 40 27 121 3 54 6 1150 6 2435 l1 2338 -182 0 -182 0
-13 -27z"/>
<path d="M28581 8710 c-242 -34 -454 -185 -556 -395 -48 -98 -65 -180 -65
-311 0 -214 56 -351 205 -500 73 -74 107 -99 175 -132 131 -64 191 -77 365
-77 174 0 234 13 365 77 68 33 102 58 175 132 149 149 205 286 205 500 0 131
-17 213 -65 311 -88 183 -273 330 -475 379 -82 20 -245 28 -329 16z"/>
<path d="M3960 7955 c-56 -32 -77 -35 -234 -35 -150 0 -164 -2 -181 -20 -15
-17 -31 -20 -106 -20 -80 0 -89 -2 -103 -22 -13 -18 -26 -23 -71 -24 -42 -1
-62 -7 -79 -23 -16 -15 -35 -21 -65 -21 -34 0 -49 -6 -67 -25 -16 -17 -34 -25
-57 -25 -21 0 -41 -7 -52 -20 -10 -11 -26 -20 -36 -20 -23 0 -69 -21 -69 -31
0 -4 -13 -10 -29 -14 -16 -3 -37 -15 -47 -26 -9 -10 -27 -19 -39 -19 -13 0
-30 -11 -39 -25 -11 -16 -26 -25 -43 -25 -14 0 -36 -10 -49 -22 -37 -37 -81
-68 -96 -68 -8 0 -24 -10 -35 -22 -26 -28 -97 -90 -183 -160 -76 -61 -112 -98
-200 -204 -36 -43 -86 -101 -113 -128 -26 -28 -50 -59 -53 -69 -8 -26 -50 -87
-69 -101 -16 -12 -33 -38 -58 -91 -8 -16 -24 -39 -36 -49 -11 -11 -21 -29 -21
-41 0 -13 -7 -28 -16 -36 -16 -13 -36 -48 -73 -125 -11 -23 -24 -45 -30 -48
-6 -4 -11 -17 -11 -30 0 -12 -11 -37 -25 -56 -14 -19 -25 -46 -25 -60 0 -15
-9 -35 -20 -45 -12 -11 -20 -31 -20 -51 0 -25 -7 -38 -25 -50 -21 -13 -25 -24
-25 -61 0 -34 -6 -53 -25 -75 -14 -16 -23 -34 -19 -39 9 -15 -6 -66 -27 -90
-14 -16 -19 -37 -19 -75 0 -43 -4 -56 -22 -69 -19 -13 -23 -25 -25 -86 -2 -59
-6 -76 -25 -96 l-23 -25 -5 -2421 c-3 -1372 -1 -2427 4 -2434 6 -10 53 -13
174 -13 l166 0 32 35 32 35 124 0 c112 0 127 2 143 20 16 17 31 20 111 20 84
0 95 2 122 25 26 21 40 25 99 25 57 0 73 4 88 20 15 16 31 20 86 20 62 0 70 2
85 25 14 21 24 25 68 25 43 0 57 5 76 25 19 20 33 25 71 25 38 0 51 4 59 20 8
14 21 20 46 20 24 0 46 9 66 25 16 14 42 25 57 25 15 0 36 9 45 19 10 10 33
22 52 26 19 3 37 12 40 20 3 8 18 17 34 20 15 3 36 15 46 26 9 10 24 19 32 19
9 0 26 10 38 21 25 24 51 40 101 64 18 8 36 21 40 29 4 8 40 39 78 70 105 85
125 104 171 165 23 31 58 73 78 93 21 21 36 47 36 61 0 13 11 34 25 47 16 15
23 30 19 42 -3 11 4 26 20 42 18 16 26 34 26 56 0 17 9 45 20 60 20 28 20 43
23 1389 l2 1360 23 21 c19 18 22 31 22 90 0 63 2 71 25 86 18 12 25 25 25 49
0 24 7 37 25 49 14 9 25 22 25 28 0 30 109 158 135 158 7 0 20 9 30 20 10 11
23 20 30 20 6 0 21 11 33 25 13 15 33 25 49 25 15 0 37 10 50 22 19 17 36 22
88 23 52 1 70 6 89 24 23 22 25 22 312 17 324 -5 387 -9 426 -24 18 -7 300
-12 875 -13 466 -2 877 -3 913 -3 l65 -1 3 119 c2 112 1 120 -20 143 -20 21
-23 37 -26 118 -3 77 -7 97 -23 111 -15 14 -19 31 -19 89 0 66 -2 74 -25 89
-22 14 -25 24 -25 75 0 45 -4 62 -20 76 -14 13 -20 31 -20 60 0 31 -6 47 -25
65 -19 17 -25 34 -25 64 0 27 -7 47 -22 63 -14 15 -21 34 -20 52 2 21 -5 33
-23 45 -17 11 -25 26 -25 46 0 18 -8 34 -22 44 -13 10 -23 28 -24 47 -1 18
-11 37 -23 45 -12 9 -21 26 -21 40 0 16 -17 46 -45 78 -25 29 -45 62 -45 72 0
10 -20 39 -44 62 -24 24 -46 56 -49 70 -9 44 -448 482 -498 497 -24 8 -38 18
-89 68 -15 15 -36 27 -45 27 -16 0 -47 20 -102 68 -14 12 -36 22 -48 22 -12 0
-30 9 -40 20 -10 11 -29 20 -42 20 -13 0 -34 11 -47 25 -15 16 -34 25 -55 25
-20 0 -35 7 -43 20 -9 14 -24 20 -50 20 -24 0 -46 8 -66 25 -21 17 -42 25 -69
25 -25 0 -50 8 -71 24 -26 19 -41 23 -75 19 -36 -4 -48 -1 -74 21 -27 23 -40
26 -101 26 -54 0 -75 4 -95 20 -21 17 -43 20 -149 22 -108 3 -128 6 -159 26
-36 22 -42 22 -345 22 -251 0 -314 -3 -334 -15z"/>
<path d="M11530 4915 l0 -3055 610 0 610 0 2 2093 3 2093 1385 -2093 1385
-2093 613 0 612 0 0 3055 0 3055 -610 0 -610 0 0 -2095 c0 -1152 -3 -2095 -7
-2095 -5 1 -629 942 -1389 2093 l-1380 2092 -612 3 -612 2 0 -3055z"/>
<path d="M19765 6769 c-1080 -111 -1848 -803 -2064 -1859 -40 -195 -55 -364
-55 -620 0 -260 10 -383 50 -592 128 -663 488 -1208 1022 -1545 290 -183 629
-300 1008 -349 170 -22 512 -22 690 0 553 66 998 279 1373 657 165 165 287
336 395 547 58 116 124 276 141 345 l7 27 -660 0 -660 0 -13 -32 c-24 -58
-107 -175 -175 -248 -142 -150 -318 -243 -543 -287 -115 -22 -346 -22 -467 0
-430 78 -765 383 -882 807 -23 80 -52 237 -52 276 l0 24 1773 2 1772 3 7 45
c3 25 12 131 19 235 26 403 -35 827 -166 1161 -204 518 -551 904 -1033 1147
-281 143 -565 224 -891 257 -119 12 -478 11 -596 -1z m558 -1013 c212 -49 381
-134 547 -276 178 -154 299 -403 317 -652 l6 -88 -1152 0 c-1020 0 -1151 2
-1151 15 0 33 41 196 70 281 136 387 453 659 852 729 107 19 412 13 511 -9z"/>
<path d="M38721 6769 c-304 -32 -629 -154 -869 -325 -94 -68 -229 -193 -296
-273 l-36 -45 0 292 0 292 -610 0 -610 0 0 -2420 0 -2420 610 0 609 0 4 1463
3 1462 23 100 c52 230 135 388 276 530 144 143 319 232 538 272 124 23 381 23
498 0 473 -93 760 -423 819 -942 6 -57 10 -607 10 -1487 l0 -1398 610 0 609 0
4 1447 c4 1555 1 1479 53 1666 77 276 254 497 494 617 245 123 575 151 877 75
337 -86 585 -334 684 -685 55 -194 52 -118 56 -1677 l4 -1443 609 0 610 0 0
1458 c0 865 -4 1512 -10 1592 -52 707 -316 1205 -818 1541 -296 198 -642 300
-1067 316 -433 15 -834 -93 -1175 -317 -224 -148 -431 -358 -544 -552 -15 -27
-31 -48 -34 -48 -4 0 -24 29 -45 65 -126 217 -332 422 -567 568 -353 218 -859
324 -1319 276z"/>
<path d="M22830 6706 c0 -3 356 -542 791 -1198 435 -656 793 -1198 796 -1204
2 -6 -349 -554 -782 -1217 -432 -664 -785 -1209 -785 -1212 0 -3 293 -4 652
-3 l651 3 437 744 c240 408 440 744 443 745 4 0 229 -334 501 -744 l493 -745
686 -3 c378 -1 687 1 687 4 0 5 -1568 2379 -1591 2410 -5 6 295 472 781 1207
434 659 792 1202 795 1207 4 7 -219 10 -647 10 l-653 0 -445 -745 c-244 -410
-446 -745 -449 -745 -3 0 -227 334 -496 743 l-491 742 -687 3 c-378 1 -687 0
-687 -2z"/>
<path d="M30473 5163 c4 -1679 1 -1599 58 -1878 72 -346 249 -691 478 -928
351 -363 818 -547 1391 -547 424 0 770 102 1095 324 94 64 269 225 320 295 17
22 33 41 38 41 4 0 7 -135 7 -300 l0 -300 615 0 615 0 0 2420 0 2420 -615 0
-615 0 0 -1374 c0 -884 -4 -1411 -10 -1477 -44 -432 -215 -723 -523 -889 -164
-89 -320 -124 -552 -124 -109 0 -187 6 -246 17 -409 80 -687 347 -788 757 -45
181 -44 156 -48 1653 l-4 1437 -610 0 -610 0 4 -1547z"/>
<path d="M28090 4280 l0 -2420 610 0 610 0 0 2420 0 2420 -610 0 -610 0 0
-2420z"/>
</g>
</svg>
